<svg width="168" height="168" viewBox="0 0 168 168" fill="none" xmlns="http://www.w3.org/2000/svg">
<g clip-path="url(#clip0_9_249)">
<path d="M15.2787 30.5574C23.7169 30.5574 30.5574 23.7169 30.5574 15.2787C30.5574 6.84051 23.7169 0 15.2787 0C6.84051 0 0 6.84051 0 15.2787C0 23.7169 6.84051 30.5574 15.2787 30.5574Z" fill="#2E2E2E"/>
<path d="M152.721 30.5574C161.16 30.5574 168 23.7169 168 15.2787C168 6.84051 161.16 0 152.721 0C144.283 0 137.443 6.84051 137.443 15.2787C137.443 23.7169 144.283 30.5574 152.721 30.5574Z" fill="#2E2E2E"/>
<path d="M106.951 30.5574C115.389 30.5574 122.23 23.7169 122.23 15.2787C122.23 6.84051 115.389 0 106.951 0C98.5128 0 91.6723 6.84051 91.6723 15.2787C91.6723 23.7169 98.5128 30.5574 106.951 30.5574Z" fill="#2E2E2E"/>
<path d="M61.1148 30.5574C69.553 30.5574 76.3935 23.7169 76.3935 15.2787C76.3935 6.84051 69.553 0 61.1148 0C52.6766 0 45.8361 6.84051 45.8361 15.2787C45.8361 23.7169 52.6766 30.5574 61.1148 30.5574Z" fill="#2E2E2E"/>
<path d="M15.2787 76.3935C23.7169 76.3935 30.5574 69.553 30.5574 61.1148C30.5574 52.6766 23.7169 45.8361 15.2787 45.8361C6.84051 45.8361 0 52.6766 0 61.1148C0 69.553 6.84051 76.3935 15.2787 76.3935Z" fill="#2E2E2E"/>
<path d="M152.721 76.3935C161.16 76.3935 168 69.553 168 61.1148C168 52.6766 161.16 45.8361 152.721 45.8361C144.283 45.8361 137.443 52.6766 137.443 61.1148C137.443 69.553 144.283 76.3935 152.721 76.3935Z" fill="#2E2E2E"/>
<path d="M106.951 76.3935C115.389 76.3935 122.23 69.553 122.23 61.1148C122.23 52.6766 115.389 45.8361 106.951 45.8361C98.5128 45.8361 91.6723 52.6766 91.6723 61.1148C91.6723 69.553 98.5128 76.3935 106.951 76.3935Z" fill="#2E2E2E"/>
<path d="M61.1148 76.3935C69.553 76.3935 76.3935 69.553 76.3935 61.1148C76.3935 52.6766 69.553 45.8361 61.1148 45.8361C52.6766 45.8361 45.8361 52.6766 45.8361 61.1148C45.8361 69.553 52.6766 76.3935 61.1148 76.3935Z" fill="#2E2E2E"/>
<path d="M15.2787 122.23C23.7169 122.23 30.5574 115.389 30.5574 106.951C30.5574 98.5128 23.7169 91.6723 15.2787 91.6723C6.84051 91.6723 0 98.5128 0 106.951C0 115.389 6.84051 122.23 15.2787 122.23Z" fill="#2E2E2E"/>
<path d="M152.721 122.23C161.16 122.23 168 115.389 168 106.951C168 98.5128 161.16 91.6723 152.721 91.6723C144.283 91.6723 137.443 98.5128 137.443 106.951C137.443 115.389 144.283 122.23 152.721 122.23Z" fill="#2E2E2E"/>
<path d="M106.951 122.23C115.389 122.23 122.23 115.389 122.23 106.951C122.23 98.5128 115.389 91.6723 106.951 91.6723C98.5128 91.6723 91.6723 98.5128 91.6723 106.951C91.6723 115.389 98.5128 122.23 106.951 122.23Z" fill="#2E2E2E"/>
<path d="M61.1148 122.23C69.553 122.23 76.3935 115.389 76.3935 106.951C76.3935 98.5128 69.553 91.6723 61.1148 91.6723C52.6766 91.6723 45.8361 98.5128 45.8361 106.951C45.8361 115.389 52.6766 122.23 61.1148 122.23Z" fill="#2E2E2E"/>
<path d="M15.2787 168C23.7169 168 30.5574 161.159 30.5574 152.721C30.5574 144.283 23.7169 137.443 15.2787 137.443C6.84051 137.443 0 144.283 0 152.721C0 161.159 6.84051 168 15.2787 168Z" fill="#2E2E2E"/>
<path d="M152.721 168C161.16 168 168 161.159 168 152.721C168 144.283 161.16 137.443 152.721 137.443C144.283 137.443 137.443 144.283 137.443 152.721C137.443 161.159 144.283 168 152.721 168Z" fill="#2E2E2E"/>
<path d="M106.951 168C115.389 168 122.23 161.159 122.23 152.721C122.23 144.283 115.389 137.443 106.951 137.443C98.5128 137.443 91.6723 144.283 91.6723 152.721C91.6723 161.159 98.5128 168 106.951 168Z" fill="#2E2E2E"/>
<path d="M61.1148 168C69.553 168 76.3935 161.159 76.3935 152.721C76.3935 144.283 69.553 137.443 61.1148 137.443C52.6766 137.443 45.8361 144.283 45.8361 152.721C45.8361 161.159 52.6766 168 61.1148 168Z" fill="#2E2E2E"/>
<path d="M61.1148 15.2787L15.2787 61.1148" stroke="#2E2E2E" stroke-miterlimit="10"/>
<path d="M152.194 62.4979L106.358 108.334" stroke="#2E2E2E" stroke-miterlimit="10"/>
<path d="M106.358 54.8585L57.2952 11.459" stroke="#2E2E2E" stroke-miterlimit="10"/>
<path d="M156.541 64.9345L110.771 19.0984" stroke="#2E2E2E" stroke-miterlimit="10"/>
<path d="M62.1686 102.604L13.1055 59.205" stroke="#2E2E2E" stroke-miterlimit="10"/>
<path d="M109.388 112.154L157.924 155.158" stroke="#2E2E2E" stroke-miterlimit="10"/>
<path d="M60.5222 110.771L14.686 156.541" stroke="#2E2E2E" stroke-miterlimit="10"/>
</g>
<defs>
<clipPath id="clip0_9_249">
<rect width="168" height="168" fill="white"/>
</clipPath>
</defs>
</svg>
